<?xml version="1.0" encoding="UTF-8" standalone="no"?>
<!DOCTYPE svg PUBLIC "-//W3C//DTD SVG 1.1//EN" "http://www.w3.org/Graphics/SVG/1.1/DTD/svg11.dtd">

<!-- Created with Vectornator (http://vectornator.io/) -->
<svg height="100%" stroke-miterlimit="10" style="fill-rule:nonzero;clip-rule:evenodd;stroke-linecap:round;stroke-linejoin:round;" version="1.1" viewBox="0 0 1024 1024" width="100%" xml:space="preserve" xmlns="http://www.w3.org/2000/svg" xmlns:vectornator="http://vectornator.io" xmlns:xlink="http://www.w3.org/1999/xlink">
<defs>
<radialGradient cx="562.673" cy="434.212" gradientTransform="matrix(0.817664 0 0 0.9797 78.4633 57.2295)" gradientUnits="userSpaceOnUse" id="RadialGradient" r="159.346">
<stop offset="0" stop-color="#000000"/>
<stop offset="1" stop-color="#000000"/>
</radialGradient>
<radialGradient cx="628.457" cy="310.615" gradientTransform="matrix(0.83725 0 0 0.9797 97.0744 56.0503)" gradientUnits="userSpaceOnUse" id="RadialGradient_2" r="71.9435">
<stop offset="0" stop-color="#000000"/>
<stop offset="1" stop-color="#000000"/>
</radialGradient>
</defs>
<g id="Ebene-1-kopieren" vectornator:layerName="Ebene 1 kopieren"/>
<g id="Ebene-1" vectornator:layerName="Ebene 1"/>
<g id="Ebene-2" vectornator:layerName="Ebene 2"/>
<g id="Ebene-3" vectornator:layerName="Ebene 3">
<path d="M512 41.1163C392.947 139.588 75.5712 287.216 75.5712 562.855C75.5712 693.348 182.175 799.124 313.609 799.124C359.595 799.124 402.25 785.802 438.634 763.36L374.18 982.884C374.18 982.884 443.09 970.687 512 970.687C580.91 970.687 649.82 982.884 649.82 982.884L585.343 763.36C621.727 785.802 664.406 799.124 710.391 799.124C841.825 799.124 948.429 693.348 948.429 562.855C948.429 287.216 631.053 139.588 512 41.1163Z" fill="#ffc107" fill-rule="evenodd" opacity="1" stroke="#ff8f00" stroke-linecap="round" stroke-linejoin="round" stroke-width="34.2453"/>
<path d="M393.49 295.109L393.49 295.109C425.978 295.109 452.315 326.143 452.315 364.425L452.315 366.76C452.315 405.042 425.978 436.076 393.49 436.076L393.49 436.076C361.001 436.076 334.664 405.042 334.664 366.76L334.664 364.425C334.664 326.143 361.001 295.109 393.49 295.109Z" fill="url(#RadialGradient)" fill-rule="evenodd" opacity="1" stroke="none"/>
<path d="M623.25 289.877L623.25 289.877C656.517 289.877 683.485 320.911 683.485 359.193L683.485 361.528C683.485 399.81 656.517 430.843 623.25 430.843L623.25 430.843C589.983 430.843 563.015 399.81 563.015 361.528L563.015 359.193C563.015 320.911 589.983 289.877 623.25 289.877Z" fill="url(#RadialGradient_2)" fill-rule="evenodd" opacity="1" stroke="none"/>
<path d="M630.077 300.277L630.077 300.277C639.809 300.277 647.698 308.036 647.698 317.606L647.698 318.19C647.698 327.761 639.809 335.519 630.077 335.519L630.077 335.519C620.345 335.519 612.456 327.761 612.456 318.19L612.456 317.606C612.456 308.036 620.345 300.277 630.077 300.277Z" fill="#ffffff" fill-rule="evenodd" opacity="1" stroke="none"/>
<path d="M393.237 305.98L393.237 305.98C402.969 305.98 410.858 313.739 410.858 323.309L410.858 323.893C410.858 333.463 402.969 341.222 393.237 341.222L393.237 341.222C383.505 341.222 375.616 333.463 375.616 323.893L375.616 323.309C375.616 313.739 383.505 305.98 393.237 305.98Z" fill="#ffffff" fill-rule="evenodd" opacity="1" stroke="none"/>
<g opacity="1">
<path d="M213.455 472.597L213.455 472.597C248.051 472.597 276.096 500.177 276.096 534.2L276.096 536.275C276.096 570.297 248.051 597.877 213.455 597.877L213.455 597.877C178.86 597.877 150.815 570.297 150.815 536.275L150.815 534.2C150.815 500.177 178.86 472.597 213.455 472.597Z" fill="#d32f2f" fill-rule="evenodd" opacity="1" stroke="none"/>
<path d="M223.294 499.747L223.294 499.747C230.501 499.747 236.344 505.493 236.344 512.581L236.344 513.014C236.344 520.102 230.501 525.847 223.294 525.847L223.294 525.847C216.086 525.847 210.244 520.102 210.244 513.014L210.244 512.581C210.244 505.493 216.086 499.747 223.294 499.747Z" fill="#ffffff" fill-rule="evenodd" opacity="0.6" stroke="none"/>
<path d="M184.773 499.747L184.773 499.747C191.98 499.747 197.823 505.493 197.823 512.581L197.823 513.014C197.823 520.102 191.98 525.847 184.773 525.847L184.773 525.847C177.566 525.847 171.723 520.102 171.723 513.014L171.723 512.581C171.723 505.493 177.566 499.747 184.773 499.747Z" fill="#ffffff" fill-rule="evenodd" opacity="0.6" stroke="none"/>
<path d="M182.993 539.244L182.993 539.244C190.2 539.244 196.043 544.99 196.043 552.078L196.043 552.51C196.043 559.598 190.2 565.344 182.993 565.344L182.993 565.344C175.786 565.344 169.943 559.598 169.943 552.51L169.943 552.078C169.943 544.99 175.786 539.244 182.993 539.244Z" fill="#ffffff" fill-rule="evenodd" opacity="0.6" stroke="none"/>
</g>
<g opacity="1">
<path d="M807.247 472.017L807.247 472.017C841.842 472.017 869.887 499.597 869.887 533.62L869.887 535.695C869.887 569.717 841.842 597.297 807.247 597.297L807.247 597.297C772.652 597.297 744.607 569.717 744.607 535.695L744.607 533.62C744.607 499.597 772.652 472.017 807.247 472.017Z" fill="#d32f2f" fill-rule="evenodd" opacity="1" stroke="none"/>
<path d="M799.289 557.344L799.289 557.344C806.496 557.344 812.339 563.09 812.339 570.178L812.339 570.61C812.339 577.698 806.496 583.444 799.289 583.444L799.289 583.444C792.082 583.444 786.239 577.698 786.239 570.61L786.239 570.178C786.239 563.09 792.082 557.344 799.289 557.344Z" fill="#ffffff" fill-rule="evenodd" opacity="0.6" stroke="none"/>
<path d="M785.139 522.334L785.139 522.334C792.347 522.334 798.189 528.079 798.189 535.167L798.189 535.6C798.189 542.688 792.347 548.434 785.139 548.434L785.139 548.434C777.932 548.434 772.089 542.688 772.089 535.6L772.089 535.167C772.089 528.079 777.932 522.334 785.139 522.334Z" fill="#ffffff" fill-rule="evenodd" opacity="0.6" stroke="none"/>
</g>
<path d="M330.166 533.027C330.166 533.027 440.619 556.902 521.367 556.902C602.115 556.902 653.159 533.027 653.159 533.027C653.159 533.027 651.557 636.859 598.434 667.047C524.487 709.069 330.166 533.027 330.166 533.027Z" fill="#000000" fill-rule="evenodd" opacity="1" stroke="none"/>
</g>
</svg>
